<?xml version="1.0" encoding="utf-8" standalone="yes"?>
<!DOCTYPE svg PUBLIC "-//W3C//DTD SVG 1.1//EN" "http://www.w3.org/Graphics/SVG/1.1/DTD/svg11.dtd">
<svg width="864" height="588" viewBox="0 0 864 588" style="fill:none;stroke:none;fill-rule:evenodd;clip-rule:evenodd;stroke-linecap:round;stroke-linejoin:round;stroke-miterlimit:1.5;" version="1.1" xmlns="http://www.w3.org/2000/svg" xmlns:xlink="http://www.w3.org/1999/xlink"><style class="text-font-style fontImports" data-font-family="Shantell Sans">@import url(https://fonts.googleapis.com/css2?family=Shantell+Sans:wght@300..800&amp;amp;display=block);</style><g id="items" style="isolation: isolate"><g id="blend" style="mix-blend-mode: normal"><g id="g-root-ro_m7yxnqo70c1v-fill" data-item-order="-19800" transform="translate(410, 251)"><g id="ro_m7yxnqo70c1v-fill-merged" stroke="none" fill="#6b6b6b"><g><path d="M34 10 H118C118 10 142 10 142 34 V136C142 136 142 160 118 160 H34C34 160 10 160 10 136 V34C10 34 10 10 34 10"></path></g></g></g><g id="g-root-ro_18itdyeo6xi4s-fill" data-item-order="-18792" transform="translate(14, 122)"><g id="ro_18itdyeo6xi4s-fill-merged" stroke="none" fill="#82489d"><g><path d="M22 10 H346C346 10 358 10 358 22 V52C358 52 358 64 346 64 H22C22 64 10 64 10 52 V22C10 22 10 10 22 10"></path></g></g></g><g id="g-root-ro_1uuwm3qo7edxf-fill" data-item-order="-12960" transform="translate(590, 350)"><g id="ro_1uuwm3qo7edxf-fill-merged" stroke="none" fill="#776f30"><g><path d="M22 10 H238C238 10 250 10 250 22 V52C250 52 250 64 238 64 H22C22 64 10 64 10 52 V22C10 22 10 10 22 10"></path></g></g></g><g id="g-root-ro_1hf2vaeo70dfm-fill" data-item-order="-11664" transform="translate(146, 368)"><g id="ro_1hf2vaeo70dfm-fill-merged" stroke="none" fill="#426397"><g><path d="M22 10 H214C214 10 226 10 226 22 V52C226 52 226 64 214 64 H22C22 64 10 64 10 52 V22C10 22 10 10 22 10"></path></g></g></g><g id="g-root-ro_18nt3hio75xxg-fill" data-item-order="-9072" transform="translate(590, 140)"><g id="ro_18nt3hio75xxg-fill-merged" stroke="none" fill="#41735b"><g><path d="M22 10 H166C166 10 178 10 178 22 V52C178 52 178 64 166 64 H22C22 64 10 64 10 52 V22C10 22 10 10 22 10"></path></g></g></g><g id="g-root-cu_qunqw6o70cge-fill" data-item-order="0" transform="translate(320, 176)"></g><g id="g-root-cu_hz0qnao70e0x-fill" data-item-order="0" transform="translate(320, 176)"></g><g id="g-root-cu_hz0qnao70e0z-fill" data-item-order="0" transform="translate(320, 176)"></g><g id="g-root-cu_hz0qnao70e11-fill" data-item-order="0" transform="translate(320, 176)"></g><g id="g-root-cu_1d14sfao70cgb-fill" data-item-order="0" transform="translate(542, 167)"></g><g id="g-root-tx_vimeo_dkg3jao7h6h1-fill" data-item-order="0" transform="translate(266, 470)"><g id="tx_vimeo_dkg3jao7h6h1-fill-merged" stroke="none" fill="#f4f4f4"><g><text style="font: 15px &quot;Shantell Sans&quot;, cursive; white-space: pre;" font-size="15px" font-family="'Shantell Sans', cursive"><tspan x="11.58" y="32.25" dominant-baseline="ideographic">Vimeo</tspan></text></g></g></g><g id="g-root-tx_nginxtow_1ur5rl2o7h7gl-fill" data-item-order="0" transform="translate(206, 188)"><g id="tx_nginxtow_1ur5rl2o7h7gl-fill-merged" stroke="none" fill="#f4f4f4"><g><text style="font: 15px &quot;Shantell Sans&quot;, cursive; white-space: pre;" font-size="15px" font-family="'Shantell Sans', cursive"><tspan x="18.13" y="32.25" dominant-baseline="ideographic">Nginx to Web</tspan></text></g></g></g><g id="g-root-cu_vah90mo70bnz-fill" data-item-order="0" transform="translate(614, 194)"></g><g id="g-root-cu_zqar52o70bnm-fill" data-item-order="0" transform="translate(614, 194)"></g><g id="g-root-cu_qunqw6o70cgc-fill" data-item-order="0" transform="translate(614, 194)"></g><g id="g-root-tx_nginxtoa_18koq1yo7h6oe-fill" data-item-order="0" transform="translate(206, 224)"><g id="tx_nginxtoa_18koq1yo7h6oe-fill-merged" stroke="none" fill="#f4f4f4"><g><text style="font: 15px &quot;Shantell Sans&quot;, cursive; white-space: pre;" font-size="15px" font-family="'Shantell Sans', cursive"><tspan x="21.72" y="32.25" dominant-baseline="ideographic">Nginx to API</tspan></text></g></g></g><g id="g-root-tx_nginx_1hegb1io7h6ve-fill" data-item-order="0" transform="translate(638, 206)"><g id="tx_nginx_1hegb1io7h6ve-fill-merged" stroke="none" fill="#f4f4f4"><g><text style="font: 15px &quot;Shantell Sans&quot;, cursive; white-space: pre;" font-size="15px" font-family="'Shantell Sans', cursive"><tspan x="12" y="32.25" dominant-baseline="ideographic">Nginx</tspan></text></g></g></g><g id="g-root-tx_webtoapi_v987omo7h89b-fill" data-item-order="0" transform="translate(218, 260)"><g id="tx_webtoapi_v987omo7h89b-fill-merged" stroke="none" fill="#f4f4f4"><g><text style="font: 15px &quot;Shantell Sans&quot;, cursive; white-space: pre;" font-size="15px" font-family="'Shantell Sans', cursive"><tspan x="20.15" y="32.25" dominant-baseline="ideographic">Web to API</tspan></text></g></g></g><g id="g-root-cu_18lbaauo70d8m-fill" data-item-order="0" transform="translate(362, 149)"></g><g id="g-root-tx_web_qs5rdyo7h6vf-fill" data-item-order="0" transform="translate(638, 242)"><g id="tx_web_qs5rdyo7h6vf-fill-merged" stroke="none" fill="#f4f4f4"><g><text style="font: 15px &quot;Shantell Sans&quot;, cursive; white-space: pre;" font-size="15px" font-family="'Shantell Sans', cursive"><tspan x="12" y="32.25" dominant-baseline="ideographic">Web</tspan></text></g></g></g><g id="g-root-tx_api_91i7zao7h62s-fill" data-item-order="0" transform="translate(638, 278)"><g id="tx_api_91i7zao7h62s-fill-merged" stroke="none" fill="#f4f4f4"><g><text style="font: 15px &quot;Shantell Sans&quot;, cursive; white-space: pre;" font-size="15px" font-family="'Shantell Sans', cursive"><tspan x="12" y="32.25" dominant-baseline="ideographic">API</tspan></text></g></g></g><g id="g-root-tx_apitoweb_me7oiuo7h6o0-fill" data-item-order="0" transform="translate(218, 296)"><g id="tx_apitoweb_me7oiuo7h6o0-fill-merged" stroke="none" fill="#f4f4f4"><g><text style="font: 15px &quot;Shantell Sans&quot;, cursive; white-space: pre;" font-size="15px" font-family="'Shantell Sans', cursive"><tspan x="20.15" y="32.25" dominant-baseline="ideographic">API to Web</tspan></text></g></g></g><g id="g-root-tx_ytdlp_1lxe6lio7h79m-fill" data-item-order="0" transform="translate(638, 452)"><g id="tx_ytdlp_1lxe6lio7h79m-fill-merged" stroke="none" fill="#f4f4f4"><g><text style="font: 15px &quot;Shantell Sans&quot;, cursive; white-space: pre;" font-size="15px" font-family="'Shantell Sans', cursive"><tspan x="12" y="32.25" dominant-baseline="ideographic">yt-dlp</tspan></text></g></g></g><g id="g-root-cu_145hs6eo70e10-fill" data-item-order="0" transform="translate(362, 351)"></g><g id="g-root-cu_18lbaauo70d8p-fill" data-item-order="0" transform="translate(542, 351)"></g><g id="g-root-tx_other_8zl5yo7h81y-fill" data-item-order="0" transform="translate(266, 506)"><g id="tx_other_8zl5yo7h81y-fill-merged" stroke="none" fill="#f4f4f4"><g><text style="font: 15px &quot;Shantell Sans&quot;, cursive; white-space: pre;" font-size="15px" font-family="'Shantell Sans', cursive"><tspan x="14.38" y="32.25" dominant-baseline="ideographic">Other</tspan></text></g></g></g><g id="g-root-tx_download_18lxo86o7h8uj-fill" data-item-order="0" transform="translate(638, 488)"><g id="tx_download_18lxo86o7h8uj-fill-merged" stroke="none" fill="#f4f4f4"><g><text style="font: 15px &quot;Shantell Sans&quot;, cursive; white-space: pre;" font-size="15px" font-family="'Shantell Sans', cursive"><tspan x="12" y="32.25" dominant-baseline="ideographic">Downloads</tspan></text></g></g></g><g id="g-root-tx_dockeriz_1utnr3ao70dtx-fill" data-item-order="0" transform="translate(116, 38)"><g id="tx_dockeriz_1utnr3ao70dtx-fill-merged" stroke="none" fill="#f4f4f4"><g><text style="font: bold 25px &quot;Shantell Sans&quot;, cursive; white-space: pre;" font-weight="bold" font-size="25px" font-family="'Shantell Sans', cursive"><tspan x="15.93" y="47.75" dominant-baseline="ideographic">Dockerized Web App Deployment Architecture</tspan></text></g></g></g><g id="g-root-tx_ffmpeg_745wmo7h91l-fill" data-item-order="0" transform="translate(638, 416)"><g id="tx_ffmpeg_745wmo7h91l-fill-merged" stroke="none" fill="#f4f4f4"><g><text style="font: 15px &quot;Shantell Sans&quot;, cursive; white-space: pre;" font-size="15px" font-family="'Shantell Sans', cursive"><tspan x="12" y="32.25" dominant-baseline="ideographic">FFmpeg</tspan></text></g></g></g><g id="g-root-cu_9407hio70bnz-fill" data-item-order="0" transform="translate(614, 404)"></g><g id="g-root-cu_4o6pd2o70cga-fill" data-item-order="0" transform="translate(614, 404)"></g><g id="g-root-cu_4o6pd2o70cgc-fill" data-item-order="0" transform="translate(614, 404)"></g><g id="g-root-tx_youtube_qva4tio7h81w-fill" data-item-order="0" transform="translate(242, 434)"><g id="tx_youtube_qva4tio7h81w-fill-merged" stroke="none" fill="#f4f4f4"><g><text style="font: 15px &quot;Shantell Sans&quot;, cursive; white-space: pre;" font-size="15px" font-family="'Shantell Sans', cursive"><tspan x="22.7" y="32.25" dominant-baseline="ideographic">YouTube</tspan></text></g></g></g><g id="g-root-cu_8d78mo70d8m-fill" data-item-order="0" transform="translate(320, 422)"></g><g id="g-root-cu_8d78mo70d8p-fill" data-item-order="0" transform="translate(320, 422)"></g><g id="g-root-cu_1utnr3ao70dtv-fill" data-item-order="0" transform="translate(320, 422)"></g><g id="g-root-ic_regi_1d304iuo760az-fill" data-item-order="1000000000" transform="translate(602, 152)"></g><g id="g-root-tx_containe_18lxo86o75yx6-fill" data-item-order="1000000000" transform="translate(638, 155)"><g id="tx_containe_18lxo86o75yx6-fill-merged" stroke="none" fill="#43dd93"><g><text style="font: 20px &quot;Shantell Sans&quot;, cursive; white-space: pre;" font-size="20px" font-family="'Shantell Sans', cursive"><tspan x="12" y="35.5" dominant-baseline="ideographic">Containers</tspan></text></g></g></g><g id="g-root-ic_dock_13ymh2eo70cui-fill" data-item-order="1000000000" transform="translate(452, 275)"></g><g id="g-root-tx_dockerho_mg33s6o6yyh5-fill" data-item-order="1000000000" transform="translate(434, 329)"><g id="tx_dockerho_mg33s6o6yyh5-fill-merged" stroke="none" fill="#b7b7b7"><g><text style="font: 20px &quot;Shantell Sans&quot;, cursive; white-space: pre;" font-size="20px" font-family="'Shantell Sans', cursive"><tspan x="15.6" y="35.5" dominant-baseline="ideographic">Docker </tspan><tspan x="26.3" y="59.5" dominant-baseline="ideographic">Host</tspan></text></g></g></g><g id="g-root-ic_exch_1ltnf8mo6xjpn-fill" data-item-order="1000000000" transform="translate(320, 134)"></g><g id="g-root-tx_dockerne_qqafaeo6xibu-fill" data-item-order="1000000000" transform="translate(26, 137)"><g id="tx_dockerne_qqafaeo6xibu-fill-merged" stroke="none" fill="#cb68f9"><g><text style="font: 20px &quot;Shantell Sans&quot;, cursive; white-space: pre;" font-size="20px" font-family="'Shantell Sans', cursive"><tspan x="22.55" y="35.5" dominant-baseline="ideographic">Docker Network: fetchly-net</tspan></text></g></g></g><g id="g-root-ic_depe_94mleuo7efpe-fill" data-item-order="1000000000" transform="translate(602, 362)"></g><g id="g-root-tx_mediasou_142dequo70cug-fill" data-item-order="1000000000" transform="translate(158, 383)"><g id="tx_mediasou_142dequo70cug-fill-merged" stroke="none" fill="#4f91fc"><g><text style="font: 20px &quot;Shantell Sans&quot;, cursive; white-space: pre;" font-size="20px" font-family="'Shantell Sans', cursive"><tspan x="23.25" y="35.5" dominant-baseline="ideographic">Media Sources</tspan></text></g></g></g><g id="g-root-ic_2_1uqjdnqo70bup-fill" data-item-order="1000000000" transform="translate(320, 380)"></g><g id="g-root-tx_apidepen_1qd7opyo7efpd-fill" data-item-order="1000000000" transform="translate(638, 365)"><g id="tx_apidepen_1qd7opyo7efpd-fill-merged" stroke="none" fill="#ffe711"><g><text style="font: 20px &quot;Shantell Sans&quot;, cursive; white-space: pre;" font-size="20px" font-family="'Shantell Sans', cursive"><tspan x="12" y="35.5" dominant-baseline="ideographic">API Dependencies</tspan></text></g></g></g><g id="g-root-ro_m7yxnqo70c1v-stroke" data-item-order="-19800" transform="translate(410, 251)"></g><g id="g-root-ro_18itdyeo6xi4s-stroke" data-item-order="-18792" transform="translate(14, 122)"></g><g id="g-root-ro_1uuwm3qo7edxf-stroke" data-item-order="-12960" transform="translate(590, 350)"></g><g id="g-root-ro_1hf2vaeo70dfm-stroke" data-item-order="-11664" transform="translate(146, 368)"></g><g id="g-root-ro_18nt3hio75xxg-stroke" data-item-order="-9072" transform="translate(590, 140)"></g><g id="g-root-cu_qunqw6o70cge-stroke" data-item-order="0" transform="translate(320, 176)"><g id="cu_qunqw6o70cge-stroke" fill="none" stroke-linecap="round" stroke-linejoin="round" stroke-miterlimit="4" stroke="#b7b7b7" stroke-width="2" stroke-dasharray="0.1, 6.0"><g><path d="M 28 10L 28 22L 28 34L 19 34L 10 34"></path></g></g></g><g id="g-root-cu_hz0qnao70e0x-stroke" data-item-order="0" transform="translate(320, 176)"><g id="cu_hz0qnao70e0x-stroke" fill="none" stroke-linecap="round" stroke-linejoin="round" stroke-miterlimit="4" stroke="#b7b7b7" stroke-width="2" stroke-dasharray="0.1, 6.0"><g><path d="M 28 10L 28 40L 28 70L 19 70L 10 70"></path></g></g></g><g id="g-root-cu_hz0qnao70e0z-stroke" data-item-order="0" transform="translate(320, 176)"><g id="cu_hz0qnao70e0z-stroke" fill="none" stroke-linecap="round" stroke-linejoin="round" stroke-miterlimit="4" stroke="#b7b7b7" stroke-width="2" stroke-dasharray="0.1, 6.0"><g><path d="M 28 10L 28 58L 28 106L 19 106L 10 106"></path></g></g></g><g id="g-root-cu_hz0qnao70e11-stroke" data-item-order="0" transform="translate(320, 176)"><g id="cu_hz0qnao70e11-stroke" fill="none" stroke-linecap="round" stroke-linejoin="round" stroke-miterlimit="4" stroke="#b7b7b7" stroke-width="2" stroke-dasharray="0.1, 6.0"><g><path d="M 28 10L 28 26.5L 28 130C 28.000005 136.627421 22.627422 142.000005 16.000005 142.000005L 15.9 142L 10 142"></path></g></g></g><g id="g-root-cu_1d14sfao70cgb-stroke" data-item-order="0" transform="translate(542, 167)"><g id="cu_1d14sfao70cgb-stroke" fill="none" stroke-linecap="round" stroke-linejoin="round" stroke-miterlimit="4" stroke="#b7b7b7" stroke-width="2" stroke-dasharray="0.1, 6.0"><g><path d="M 10 144L 13 144L 13.1 144C 24.642746 144.000005 33.999995 134.642756 33.999996 123.100005L 34 123L 34 30.9C 33.999999 19.357249 43.357248 10.000001 54.899999 10.000002L 55 10L 58 10"></path></g></g></g><g id="g-root-tx_vimeo_dkg3jao7h6h1-stroke" data-item-order="0" transform="translate(266, 470)"></g><g id="g-root-tx_nginxtow_1ur5rl2o7h7gl-stroke" data-item-order="0" transform="translate(206, 188)"></g><g id="g-root-cu_vah90mo70bnz-stroke" data-item-order="0" transform="translate(614, 194)"><g id="cu_vah90mo70bnz-stroke" fill="none" stroke-linecap="round" stroke-linejoin="round" stroke-miterlimit="4" stroke="#b7b7b7" stroke-width="2" stroke-dasharray="0.1, 6.0"><g><path d="M 10 10L 10 22L 10 34L 19 34L 28 34"></path></g></g></g><g id="g-root-cu_zqar52o70bnm-stroke" data-item-order="0" transform="translate(614, 194)"><g id="cu_zqar52o70bnm-stroke" fill="none" stroke-linecap="round" stroke-linejoin="round" stroke-miterlimit="4" stroke="#b7b7b7" stroke-width="2" stroke-dasharray="0.1, 6.0"><g><path d="M 10 10L 10 40L 10 70L 19 70L 28 70"></path></g></g></g><g id="g-root-cu_qunqw6o70cgc-stroke" data-item-order="0" transform="translate(614, 194)"><g id="cu_qunqw6o70cgc-stroke" fill="none" stroke-linecap="round" stroke-linejoin="round" stroke-miterlimit="4" stroke="#b7b7b7" stroke-width="2" stroke-dasharray="0.1, 6.0"><g><path d="M 10 10L 10 22L 10 94C 10.000004 100.627423 15.372587 106.000006 22.000005 106.000005L 22.1 106L 28 106"></path></g></g></g><g id="g-root-tx_nginxtoa_18koq1yo7h6oe-stroke" data-item-order="0" transform="translate(206, 224)"></g><g id="g-root-tx_nginx_1hegb1io7h6ve-stroke" data-item-order="0" transform="translate(638, 206)"></g><g id="g-root-tx_webtoapi_v987omo7h89b-stroke" data-item-order="0" transform="translate(218, 260)"></g><g id="g-root-cu_18lbaauo70d8m-stroke" data-item-order="0" transform="translate(362, 149)"><g id="cu_18lbaauo70d8m-stroke" fill="none" stroke-linecap="round" stroke-linejoin="round" stroke-miterlimit="4" stroke="#b7b7b7" stroke-width="2" stroke-dasharray="0.1, 6.0"><g><path d="M 58 162L 55 162L 54.9 162C 43.357245 162.000001 33.999996 152.642752 33.999997 141.1L 34 141L 34 30.9C 33.999998 19.357248 24.64275 10 13.1 10L 13 10L 10 10"></path></g></g></g><g id="g-root-tx_web_qs5rdyo7h6vf-stroke" data-item-order="0" transform="translate(638, 242)"></g><g id="g-root-tx_api_91i7zao7h62s-stroke" data-item-order="0" transform="translate(638, 278)"></g><g id="g-root-tx_apitoweb_me7oiuo7h6o0-stroke" data-item-order="0" transform="translate(218, 296)"></g><g id="g-root-tx_ytdlp_1lxe6lio7h79m-stroke" data-item-order="0" transform="translate(638, 452)"></g><g id="g-root-cu_145hs6eo70e10-stroke" data-item-order="0" transform="translate(362, 351)"><g id="cu_145hs6eo70e10-stroke" fill="none" stroke-linecap="round" stroke-linejoin="round" stroke-miterlimit="4" stroke="#b7b7b7" stroke-width="2" stroke-dasharray="0.1, 6.0"><g><path d="M 58 10L 55 10L 54.9 10C 43.357248 10.000001 33.999999 19.357249 33.999999 30.9L 34 31L 34 33.1C 34.000002 44.642753 24.642753 54.000003 13.100001 54.000003L 13 54L 10 54"></path></g></g></g><g id="g-root-cu_18lbaauo70d8p-stroke" data-item-order="0" transform="translate(542, 351)"><g id="cu_18lbaauo70d8p-stroke" fill="none" stroke-linecap="round" stroke-linejoin="round" stroke-miterlimit="4" stroke="#b7b7b7" stroke-width="2" stroke-dasharray="0.1, 6.0"><g><path d="M 10 10L 13 10L 13.1 10C 17.015943 9.997798 21.265956 11.207151 25.400001 13.5C 27.874528 14.874798 30.964908 18.288591 33.999998 23C 37.035089 27.711409 40.125469 31.125202 42.599998 32.5C 46.734045 34.79285 50.984058 36.002203 54.900002 36.000001L 55 36L 58 36"></path></g></g></g><g id="g-root-tx_other_8zl5yo7h81y-stroke" data-item-order="0" transform="translate(266, 506)"></g><g id="g-root-tx_download_18lxo86o7h8uj-stroke" data-item-order="0" transform="translate(638, 488)"></g><g id="g-root-tx_dockeriz_1utnr3ao70dtx-stroke" data-item-order="0" transform="translate(116, 38)"></g><g id="g-root-tx_ffmpeg_745wmo7h91l-stroke" data-item-order="0" transform="translate(638, 416)"></g><g id="g-root-cu_9407hio70bnz-stroke" data-item-order="0" transform="translate(614, 404)"><g id="cu_9407hio70bnz-stroke" fill="none" stroke-linecap="round" stroke-linejoin="round" stroke-miterlimit="4" stroke="#b7b7b7" stroke-width="2" stroke-dasharray="0.1, 6.0"><g><path d="M 10 10L 10 22L 10 34L 19 34L 28 34"></path></g></g></g><g id="g-root-cu_4o6pd2o70cga-stroke" data-item-order="0" transform="translate(614, 404)"><g id="cu_4o6pd2o70cga-stroke" fill="none" stroke-linecap="round" stroke-linejoin="round" stroke-miterlimit="4" stroke="#b7b7b7" stroke-width="2" stroke-dasharray="0.1, 6.0"><g><path d="M 10 10L 10 40L 10 70L 19 70L 28 70"></path></g></g></g><g id="g-root-cu_4o6pd2o70cgc-stroke" data-item-order="0" transform="translate(614, 404)"><g id="cu_4o6pd2o70cgc-stroke" fill="none" stroke-linecap="round" stroke-linejoin="round" stroke-miterlimit="4" stroke="#b7b7b7" stroke-width="2" stroke-dasharray="0.1, 6.0"><g><path d="M 10 10L 10 22L 10 94C 10.000004 100.627423 15.372587 106.000006 22.000005 106.000005L 22.1 106L 28 106"></path></g></g></g><g id="g-root-tx_youtube_qva4tio7h81w-stroke" data-item-order="0" transform="translate(242, 434)"></g><g id="g-root-cu_8d78mo70d8m-stroke" data-item-order="0" transform="translate(320, 422)"><g id="cu_8d78mo70d8m-stroke" fill="none" stroke-linecap="round" stroke-linejoin="round" stroke-miterlimit="4" stroke="#b7b7b7" stroke-width="2" stroke-dasharray="0.1, 6.0"><g><path d="M 28 10L 28 22L 28 34L 19 34L 10 34"></path></g></g></g><g id="g-root-cu_8d78mo70d8p-stroke" data-item-order="0" transform="translate(320, 422)"><g id="cu_8d78mo70d8p-stroke" fill="none" stroke-linecap="round" stroke-linejoin="round" stroke-miterlimit="4" stroke="#b7b7b7" stroke-width="2" stroke-dasharray="0.1, 6.0"><g><path d="M 28 10L 28 40L 28 70L 19 70L 10 70"></path></g></g></g><g id="g-root-cu_1utnr3ao70dtv-stroke" data-item-order="0" transform="translate(320, 422)"><g id="cu_1utnr3ao70dtv-stroke" fill="none" stroke-linecap="round" stroke-linejoin="round" stroke-miterlimit="4" stroke="#b7b7b7" stroke-width="2" stroke-dasharray="0.1, 6.0"><g><path d="M 28 10L 28 22L 28 94C 28.000002 100.627415 22.627419 105.999998 16.000002 105.999998L 15.9 106L 10 106"></path></g></g></g><g id="g-root-ic_regi_1d304iuo760az-stroke" data-item-order="1000000000" transform="translate(602, 152)"><g id="ic_regi_1d304iuo760az-stroke" fill="none" stroke-linecap="round" stroke-linejoin="round" stroke-miterlimit="4" stroke="#43dd93" stroke-width="2"><g><path d="M 10 10M 37.8125 17.8125L 24.9375 24.6875L 24.9375 39.0625L 12.1875 32.1875L 12.1875 17.8125L 24.9375 10.9375L 37.8125 17.8125ZM 37.812622 22.312475L 37.812622 32.1875L 28.687626 37.0625L 28.687626 31.6875L 32.812622 29.5625L 32.812622 25.0625L 37.812622 22.312475Z"></path></g></g></g><g id="g-root-tx_containe_18lxo86o75yx6-stroke" data-item-order="1000000000" transform="translate(638, 155)"></g><g id="g-root-ic_dock_13ymh2eo70cui-stroke" data-item-order="1000000000" transform="translate(452, 275)"><g id="ic_dock_13ymh2eo70cui-stroke" fill="none" stroke-linecap="round" stroke-linejoin="round" stroke-miterlimit="4" stroke="#b7b7b7" stroke-width="2"><g><path d="M 12 37C 11.727344 36.99976 11.466412 37.110863 11.277619 37.307583C 11.088828 37.504303 10.988548 37.769585 11 38.042C 11.43 47.987999 17.848 55 27.99 55C 38.482002 55 49.990002 46.493999 49.990002 36C 51.313225 36.562279 52.808643 36.559978 54.130127 35.993629C 55.451611 35.427277 56.484604 34.345978 56.990002 33C 56.484417 31.656559 55.453087 30.577232 54.134014 30.011106C 52.814938 29.444981 51.322098 29.440971 50.000004 30.000002C 51 25 45 23 45 23C 45 23 42 28 45 32C 45 32 46 37 42 37ZM 22.99 44C 22.99 44.552284 23.437716 45 23.99 45C 24.542286 45 24.99 44.552284 24.99 44C 24.99 43.447716 24.542286 43 23.99 43C 23.437716 43 22.99 43.447716 22.99 44M 14.99 29L 22.99 29L 22.99 37L 14.99 37ZM 22.99 29L 30.99 29L 30.99 37L 22.99 37ZM 30.99 29L 38.989998 29L 38.989998 37L 30.99 37ZM 22.99 21L 30.99 21L 30.99 29L 22.99 29ZM 22.99 13L 30.99 13L 30.99 21L 22.99 21ZM 30.99 21L 38.989998 21L 38.989998 29L 30.99 29Z"></path></g></g></g><g id="g-root-tx_dockerho_mg33s6o6yyh5-stroke" data-item-order="1000000000" transform="translate(434, 329)"></g><g id="g-root-ic_exch_1ltnf8mo6xjpn-stroke" data-item-order="1000000000" transform="translate(320, 134)"><g id="ic_exch_1ltnf8mo6xjpn-stroke" fill="none" stroke-linecap="round" stroke-linejoin="round" stroke-miterlimit="4" stroke="#cb68f9" stroke-width="2"><g><path d="M 33.125 26.875L 33.125 29.6875C 33.12569 32.276619 31.026621 34.37569 28.4375 34.375L 26.25 34.375M 30.625 29.375L 33.125 26.875L 35.625 29.375M 28.125 36.25L 26.25 34.375L 28.125 32.5M 33.58625 23.125C 35.824085 22.82432 37.495731 20.916693 37.5 18.658751C 37.516663 17.464439 37.046379 16.314812 36.197441 15.474598C 35.348503 14.634383 34.194077 14.176 33 14.205C 32.025105 12.038273 29.875902 10.639336 27.499998 10.625C 24.240002 10.666074 21.578041 13.243049 21.431252 16.5C 20.456375 16.304245 19.445295 16.560589 18.681446 17.19717C 17.917597 17.833752 17.483189 18.782057 17.5 19.776251C 17.492151 20.689392 17.860344 21.56554 18.51812 22.198961C 19.175894 22.832382 20.065304 23.167274 20.977499 23.125ZM 13.75 26.875L 20 26.875C 20.690357 26.875 21.25 27.434643 21.25 28.125L 21.25 38.125C 21.25 38.815353 20.690357 39.375 20 39.375L 13.75 39.375C 13.059644 39.375 12.5 38.815353 12.5 38.125L 12.5 28.125C 12.5 27.434643 13.059644 26.875 13.75 26.875ZM 16.875 35.9375C 16.702412 35.9375 16.5625 36.077412 16.5625 36.25C 16.5625 36.422588 16.702412 36.5625 16.875 36.5625C 17.047588 36.5625 17.1875 36.422588 17.1875 36.25C 17.1875 36.077412 17.047588 35.9375 16.875 35.9375L 16.875 35.9375"></path></g></g></g><g id="g-root-tx_dockerne_qqafaeo6xibu-stroke" data-item-order="1000000000" transform="translate(26, 137)"></g><g id="g-root-ic_depe_94mleuo7efpe-stroke" data-item-order="1000000000" transform="translate(602, 362)"><g id="ic_depe_94mleuo7efpe-stroke" fill="none" stroke-linecap="round" stroke-linejoin="round" stroke-miterlimit="4" stroke="#ffe711" stroke-width="2"><g><path d="M 23.125 22.215488L 10.9375 16.675724L 10.9375 29.971125L 23.125 35.511002L 23.125 22.215488ZM 23.125 35.511002L 23.125 22.215488L 35.3125 16.675724L 35.3125 24.74575M 35.3125 16.675337L 23.125 11.135559L 10.9375 16.675337M 27.5 33.933998L 39.0625 33.933998M 10 10M 33.505875 38.864502L 39.061375 33.933876L 33.505875 29.003374"></path></g></g></g><g id="g-root-tx_mediasou_142dequo70cug-stroke" data-item-order="1000000000" transform="translate(158, 383)"></g><g id="g-root-ic_2_1uqjdnqo70bup-stroke" data-item-order="1000000000" transform="translate(320, 380)"><g id="ic_2_1uqjdnqo70bup-stroke" fill="none" stroke-linecap="round" stroke-linejoin="round" stroke-miterlimit="4" stroke="#4f91fc" stroke-width="2"><g><path d="M 21.875 27.841249L 39.375 10.625M 39.375 20.463751L 39.375 10.625L 29.375 10.625M 31.967499 24.971251C 33.560593 29.749311 31.689686 34.997913 27.433466 37.690941C 23.177244 40.383972 17.633057 39.827103 13.997439 36.3414C 10.361823 32.855698 9.572121 27.339859 12.08364 22.974073C 14.59516 18.608288 19.760376 16.518152 24.60125 17.908751"></path></g></g></g><g id="g-root-tx_apidepen_1qd7opyo7efpd-stroke" data-item-order="1000000000" transform="translate(638, 365)"></g></g></g><path id="wmdlalip1d5vx" d="M65.283 12.757a.35.35 0 0 0 .584.157l5.203-5.141-6.183 3.523.396 1.461zm-2.216-11.7a.35.35 0 0 0-.522.305v3.111l3.276-1.868-2.754-1.548zm3.728 2.105l-4.25 2.421v2.445l6.391-3.644-2.141-1.222zm4.708 3.303a.35.35 0 0 0 0-.609l-1.592-.9-7.365 4.199v1.782a.35.35 0 0 0 .523.305l8.435-4.777z M44.542 2.513c0-.433.355-.783.792-.783s.792.35.792.783-.355.783-.792.783-.792-.35-.792-.783zm59.171 0c0-.433.355-.783.792-.783s.792.35.792.783-.355.783-.792.783-.792-.35-.792-.783zm-85.951 7.636h-1.27v-.487c-.276.201-.864.609-1.881.609-1.202 0-2.274-.794-2.137-2.078.118-1.106 1.153-1.584 1.848-1.727l2.17-.345c0-.539-.29-.956-1.064-1.006s-1.21.305-1.571 1.017l-1.124-.605c1.218-2.631 5.029-1.764 5.029.414v4.207zm-1.27-2.86c.006.396-.062 1.112-.819 1.59-.587.37-1.841.299-1.903-.395-.049-.555.461-.791.906-.898l1.816-.297zm72.662 2.86h-1.27v-.487c-.276.201-.864.609-1.881.609-1.202 0-2.274-.794-2.137-2.078.118-1.106 1.153-1.584 1.848-1.727l2.17-.345c0-.539-.29-.956-1.064-1.006s-1.21.305-1.571 1.017l-1.124-.605c1.218-2.631 5.029-1.764 5.029.414v4.207zm-1.27-2.86c.006.396-.062 1.112-.82 1.59-.587.37-1.841.299-1.903-.395-.049-.555.461-.791.906-.898l1.816-.297zM99.096 10.149H97.85v-8.45h1.246v4.895l2.68-2.559h1.738l-2.633 2.535 2.715 3.578h-1.556l-2.077-2.707-.867.844v1.863zm6.053-6.114h-1.255v6.113h1.255V4.035zm-59.2 0h-1.255v6.113h1.255V4.035zm5.584 6.113V1.697h1.255v2.695c.361-.346 1-.485 1.47-.485 1.452 0 2.477 1.082 2.457 2.448v3.792h-1.27v-3.68c0-.408-.214-1.339-1.315-1.339-.968 0-1.342.756-1.342 1.339v3.681h-1.255zm-4.76-4.894V4.039h.621a.45.45 0 0 0 .45-.45v-.855h1.251v1.305h1.309v1.215h-1.309v3.109c0 .293.105.664.648.664.365 0 .531-.035.736-.07v1.137s-.361.113-.857.113c-1.398 0-1.777-1.051-1.777-1.788V5.254h-1.071zM36.528 4.039h-1.394l2.191 6.106h1.125l1.234-3.918 1.238 3.918h1.129l2.188-6.106h-1.383l-1.359 3.93-1.256-3.93h-1.124l-1.242 3.957-1.348-3.957zM26.212 7.141c-.02 1.566 1.187 3.129 3.223 3.129 1.566 0 2.383-.918 2.734-1.719L31.172 8c-.315.399-.801 1.094-1.738 1.094-1.145 0-1.825-.781-1.891-1.52h4.625c.074-.284.148-.995-.03-1.559-.336-1.064-1.221-2.102-2.839-2.102s-3.088 1.152-3.088 3.227zm1.363-.75h3.348c-.055-.43-.566-1.301-1.623-1.301a1.79 1.79 0 0 0-1.725 1.301zm-8.758.75c.038 1.758 1.277 3.133 3.145 3.133 1.074 0 1.723-.477 1.961-.672v.547h1.242V1.703h-1.258v2.888c-.414-.36-1.062-.68-1.93-.68-1.91 0-3.198 1.473-3.16 3.23zm1.309-.08c0 1.119.723 1.978 1.836 1.978a1.88 1.88 0 0 0 1.94-1.904c0-1.371-1.011-1.99-1.972-1.99s-1.805.798-1.805 1.916zm76.683-.028C96.771 5.275 95.532 3.9 93.664 3.9c-1.074 0-1.723.477-1.961.672v-.547h-1.242v8.22h1.258V9.583c.414.36 1.063.68 1.93.68 1.91 0 3.198-1.473 3.16-3.23zm-1.309.08c0-1.119-.723-1.978-1.836-1.978a1.88 1.88 0 0 0-1.94 1.904c0 1.371 1.011 1.99 1.972 1.99S95.5 8.231 95.5 7.113zM106.441 10.173V4.036h1.254v.382c.361-.346 1-.485 1.47-.485 1.452 0 2.477 1.082 2.457 2.448v3.792h-1.27V6.492c0-.408-.214-1.339-1.315-1.339-.969 0-1.342.756-1.342 1.339v3.681h-1.254zm-30.383-.021V1.824h1.084l4.215 5.777V1.824h1.32v8.328h-1.094l-4.207-5.796v5.796h-1.319zM5.24 10.149H4V2.377h1.014l2.664 3.597 2.654-3.592h1.03v7.766h-1.256V4.762L7.678 8.068 5.24 4.742v5.407z" transform="translate(20, 554)" fill="#ababab88" stroke="none"></path></svg>